<svg height="146" width="869.462" xmlns="http://www.w3.org/2000/svg"><g fill="#16a9e3"><path d="M120.3 26.7L80.2 3.6C76.1 1.2 71.5 0 66.8 0s-9.2 1.2-13.4 3.6L27.8 18.4v30.9l39-22.5 40.1 23.1v46.3l26.7 15.4V49.9c0-9.6-5.1-18.4-13.3-23.2zm-53.5 92.6L26.7 96.2V49.9L0 34.5v61.7c0 9.5 5.1 18.4 13.4 23.1l40.1 23.1c4.1 2.4 8.7 3.6 13.4 3.6s9.2-1.2 13.4-3.6l25.6-14.8V96.7z"/><path d="M187.402 132.04c0 4.608 2.304 5.952 5.568 5.952h1.344c3.264 0 5.376-1.344 5.376-5.952v-8.832c5.184 8.64 16.896 16.32 33.408 16.32 25.344 0 43.968-19.392 43.968-48.192 0-28.992-19.008-47.808-43.2-47.808-15.168 0-25.728 6.336-33.984 17.28v-42.24c0-9.984-4.032-12.096-8.256-12.096-2.304 0-4.224.96-4.224 1.344zm12.288-34.368V76.168c5.76-13.248 16.896-21.696 32.832-21.696 18.432 0 31.872 15.552 31.872 37.056 0 22.08-12.864 37.056-32.256 37.056-17.28 0-32.448-13.44-32.448-30.912zm97.797 34.368c0 4.608 2.304 5.952 5.568 5.952h1.344c3.264 0 5.568-1.344 5.568-5.952V18.568c0-9.984-4.032-12.096-8.256-12.096-2.304 0-4.224.96-4.224 1.344zm38.397-32.832c0 24.192 12.096 40.32 36.288 40.32 14.016 0 24.576-6.72 31.104-16.512v2.88c0 9.984 3.84 12.096 8.064 12.096 2.304 0 4.224-.96 4.224-1.344V51.016c0-4.608-2.304-5.952-5.568-5.952h-1.344c-3.264 0-5.568 1.344-5.568 5.952v57.408c-5.376 11.52-15.936 19.392-29.184 19.392-16.32 0-25.536-10.944-25.536-29.376V51.016c0-4.608-2.304-5.952-5.568-5.952h-1.344c-3.264 0-5.568 1.344-5.568 5.952zm99.25-7.296c0 28.032 19.391 47.616 47.231 47.616 24.768 0 38.592-14.016 38.592-20.352 0-5.952-6.912-7.68-7.296-7.104-5.376 8.64-13.44 16.32-31.296 16.32-19.584 0-33.792-13.824-34.752-33.408h71.04c3.84 0 5.184-.768 5.184-4.224v-1.152c0-27.84-16.896-46.08-42.624-46.08-26.496 0-46.08 20.544-46.08 48.384zm12.863-7.68c2.688-17.472 15.936-29.76 33.216-29.76 17.088 0 28.224 11.712 29.376 29.76zm95.28 47.808c0 4.608 2.304 5.952 5.568 5.952h1.344c3.264 0 5.568-1.344 5.568-5.952V86.536c0-19.008 12.096-31.296 30.144-31.296 15.36 0 24.576 10.944 24.576 29.376v47.424c0 4.608 2.304 5.952 5.568 5.952h1.344c3.264 0 5.568-1.344 5.568-5.952V83.848c0-24.192-12.096-40.32-36.288-40.32-14.4 0-24.576 7.104-30.912 16.896V18.568c0-9.984-4.032-12.096-8.256-12.096-2.304 0-4.224.96-4.224 1.344zm111.73-109.056c5.567 0 8.447-2.688 8.447-8.256s-2.688-8.256-8.064-8.256c-5.568 0-8.448 2.688-8.448 8.256 0 5.376 2.88 8.256 8.064 8.256zm-6.145 109.056c0 4.608 2.304 5.952 5.568 5.952h1.344c3.264 0 5.568-1.344 5.568-5.952V51.016c0-4.608-2.304-5.952-5.568-5.952h-1.344c-3.264 0-5.568 1.344-5.568 5.952zm63.165 1.728c1.344 3.264 1.92 4.608 8.448 4.608 6.336 0 7.68-1.728 9.024-4.992l33.6-84.672c.192-.576-1.728-3.648-6.144-3.648-3.84 0-6.144 1.728-9.024 9.216l-27.456 71.808-26.88-71.808c-2.88-7.488-4.992-9.216-9.408-9.216s-6.336 2.88-6.144 3.648zm58.731-41.856c0 28.032 19.392 47.616 47.232 47.616 24.768 0 38.592-14.016 38.592-20.352 0-5.952-6.912-7.68-7.296-7.104-5.376 8.64-13.44 16.32-31.296 16.32-19.584 0-33.792-13.824-34.752-33.408h71.04c3.84 0 5.184-.768 5.184-4.224v-1.152c0-27.84-16.896-46.08-42.624-46.08-26.496 0-46.08 20.544-46.08 48.384zm12.864-7.68c2.688-17.472 15.936-29.76 33.216-29.76 17.088 0 28.224 11.712 29.376 29.76z"/></g><text x="994.068" y="242.22"/></svg>